<?xml version="1.0" encoding="UTF-8" standalone="no"?>
<!-- Created with Inkscape (http://www.inkscape.org/) -->

<svg
   version="1.1"
   id="svg627"
   width="170.66667"
   height="170.66667"
   viewBox="0 0 170.66667 170.66667"
   xml:space="preserve"
   xmlns="http://www.w3.org/2000/svg"
   xmlns:svg="http://www.w3.org/2000/svg">
    <defs
   id="defs631" />
    <rect
   style="fill:#ffffff;fill-rule:evenodd;stroke-width:24.192;stroke-linecap:square;fill-opacity:1;stroke:none"
   id="rect360"
   width="147.19743"
   height="149.05026"
   x="12.146361"
   y="8.8524332" /><rect
   style="fill:#ffffff;fill-opacity:1;stroke:none;stroke-width:71.7199;stroke-linejoin:bevel;stroke-opacity:0"
   id="rect369"
   width="144.64474"
   height="145.81535"
   x="12.846219"
   y="11.675618" />

    
<path
   style="fill:#000000;stroke-width:1.33132"
   d="m 70.585846,163.64678 c -2.017034,-0.83265 -14.379635,-1.25027 -31.379064,-1.06 -15.427917,0.17268 -28.656558,-0.0604 -29.3969793,-0.51804 C 7.1471093,160.42311 5.2414192,142.60858 4.5808541,113.18818 4.2109445,96.713061 3.8111708,80.537488 3.6924682,77.242464 3.303842,66.454737 5.4723635,23.527061 6.8664471,14.410926 7.6161044,9.5087973 8.9596389,4.8919704 9.8520795,4.1513105 10.946956,3.2426434 15.783124,3.2607121 24.721568,4.2068653 32.007345,4.9780803 43.360293,5.2396875 49.950342,4.7882147 56.54039,4.3367418 81.103297,3.6105072 104.53458,3.1743598 c 23.43128,-0.4361475 43.28227,-1.3391512 44.11328,-2.0066752 2.19728,-1.76497311 13.35708,1.5440609 16.50381,4.8936048 2.40454,2.559515 2.62203,4.6306146 2.52128,24.0107546 -0.19458,37.435711 -0.16162,51.087807 0.21403,88.639546 0.44037,44.02414 0.72353,43.00983 -12.38091,44.35014 -15.47714,1.583 -81.402609,2.03718 -84.920224,0.58505 z m 63.903504,-12.21061 20.6355,-0.36076 1.00547,-9.29153 c 0.553,-5.11034 0.60015,-12.88609 0.10476,-17.27945 -0.49539,-4.39337 -0.96147,-29.854919 -1.03574,-56.581227 -0.0743,-26.726307 -0.58172,-49.503313 -1.12769,-50.61557 -0.85489,-1.74166 -5.37686,-1.965628 -32.58713,-1.614001 -17.37697,0.224557 -47.427908,0.535489 -66.779861,0.690962 l -35.185369,0.282678 -1.148573,3.993969 c -1.62179,5.639504 -1.589722,90.599759 0.03995,105.840169 2.010496,18.80182 2.93529,21.58773 7.612876,22.93349 9.389209,2.70129 38.112391,3.23127 108.465807,2.00127 z M 87.893044,141.14596 c -1.830569,-0.58625 -6.730313,-1.12563 -10.888319,-1.19861 -7.132203,-0.1252 -11.74417,-2.26857 -11.74417,-5.458 0,-2.1495 4.314098,-5.45589 8.109012,-6.21487 2.086754,-0.41735 4.071446,-1.73589 4.410427,-2.9301 0.338981,-1.1942 0.964576,-11.15771 1.390212,-22.14112 0.425636,-10.983414 1.12376,-26.709665 1.551386,-34.947226 L 81.499097,53.278652 H 66.818305 c -15.375857,0 -18.864948,1.193947 -18.864948,6.455481 0,3.397999 -3.817944,8.18907 -6.525766,8.18907 -1.30945,0 -3.447347,-1.178501 -4.750883,-2.618893 -3.244183,-3.584782 -3.701785,-21.556697 -0.627533,-24.645821 1.758312,-1.766814 7.777296,-2.164668 39.468263,-2.60884 20.566456,-0.288253 43.229032,-1.28756 50.361282,-2.220681 12.88577,-1.685862 12.9834,-1.677221 15.44881,1.367426 3.06997,3.79126 3.41713,17.921444 0.60563,24.650328 -3.28635,7.865316 -12.04231,7.380637 -13.66978,-0.756677 -1.01721,-5.086061 -3.52278,-6.025284 -17.73785,-6.649116 -11.212539,-0.492065 -11.32062,-0.466115 -11.794067,2.831691 -0.262803,1.830569 -0.04538,18.455464 0.483147,36.944211 l 0.96097,33.615899 h 4.36183 c 5.89695,0 10.61828,3.88619 9.39682,7.73466 -0.54544,1.71853 -2.38601,3.2083 -4.49592,3.63902 -1.96483,0.40112 -5.73875,1.30114 -8.3865,2.00009 -5.520635,1.45729 -8.461571,1.44376 -13.158766,-0.0605 z"
   id="path306" /></svg>
